<?xml version="1.0" standalone="no"?>
<!DOCTYPE svg PUBLIC "-//W3C//DTD SVG 20010904//EN"
 "http://www.w3.org/TR/2001/REC-SVG-20010904/DTD/svg10.dtd">
<svg version="1.0" xmlns="http://www.w3.org/2000/svg"
 width="800.000000pt" height="800.000000pt" viewBox="0 0 800.000000 800.000000"
 preserveAspectRatio="xMidYMid meet">
<metadata>
Created by potrace 1.11, written by Peter Selinger 2001-2013
</metadata>
<g transform="translate(0.000000,800.000000) scale(0.100000,-0.100000)"
fill="#000000" stroke="none">
<path d="M3758 7995 c-2 -1 -39 -5 -83 -9 -166 -13 -326 -36 -475 -68 -52 -11
-103 -21 -114 -23 -133 -28 -456 -129 -571 -180 -16 -7 -59 -25 -95 -40 -99
-42 -335 -157 -338 -167 -2 -4 -8 -8 -13 -8 -14 0 -197 -111 -319 -194 -220
-149 -364 -270 -581 -486 -255 -254 -446 -500 -621 -800 -244 -417 -425 -916
-493 -1360 -4 -25 -9 -54 -11 -65 -9 -45 -25 -185 -31 -270 -10 -124 -10 -519
0 -640 13 -162 14 -168 22 -215 3 -25 8 -56 10 -70 73 -494 241 -969 503
-1420 118 -204 287 -438 429 -597 111 -125 119 -136 103 -141 -8 -3 -30 -20
-47 -39 l-33 -34 0 -272 0 -272 -144 -1 c-156 0 -177 -6 -213 -61 -15 -23 -17
-57 -18 -292 l0 -266 3375 0 3375 0 0 266 c0 235 -2 269 -18 292 -35 54 -57
61 -211 61 l-141 1 -5 271 c-5 293 -9 310 -66 336 -13 6 -24 14 -24 18 0 3 18
25 39 48 328 351 628 842 798 1302 70 189 146 454 168 580 3 19 10 51 15 70 4
19 11 57 15 83 3 27 8 58 10 69 3 11 7 46 10 77 4 31 8 63 10 71 26 101 26
728 0 891 -2 13 -6 50 -10 83 -4 32 -9 70 -11 85 -5 27 -20 114 -30 166 -4 24
-30 138 -58 255 -63 259 -233 679 -373 918 -24 41 -43 76 -43 78 0 19 -272
413 -321 464 -8 9 -30 36 -49 60 -74 96 -339 368 -465 478 -499 433 -1133 748
-1780 883 -178 37 -179 37 -234 45 -25 3 -55 7 -67 9 -11 2 -52 6 -90 10 -38
4 -85 9 -104 12 -38 5 -576 13 -582 8z"/>
</g>
</svg>
